<svg id="Calque_1" data-name="Calque 1" xmlns="http://www.w3.org/2000/svg" viewBox="0 0 47.74 47.67"><defs><style>.cls-1{fill:#92ac18;}.cls-2{fill:#6e8511;}.cls-3{fill:#5a6f09;}.cls-4{fill:#5a6f0a;}.cls-5{fill:#6e8512;}.cls-6{fill:#6f8615;}.cls-7{fill:#6e8515;}.cls-8{fill:#6e8513;}.cls-9{fill:#6e8514;}.cls-10{fill:#6d8512;}.cls-11{fill:#6f8614;}.cls-12{fill:#6d8513;}.cls-13{fill:#6d8412;}</style></defs><title>15974125765772_image2 (1)</title><path class="cls-1" d="M219.29,349.24a12.86,12.86,0,0,0,0,4.06c.09.47-.14.65-.44.86a11.17,11.17,0,0,0-2.69,2.71.85.85,0,0,1-1,.38c-1.47-.28-3.15.41-4.35-.11s-1.91-2.17-3.16-3a.85.85,0,0,1-.38-1,10.66,10.66,0,0,0,0-3.82.82.82,0,0,1,.41-1,10,10,0,0,0,2.62-2.61,1,1,0,0,1,1.2-.48,9.37,9.37,0,0,0,3.58,0,1,1,0,0,1,1.12.4,10.46,10.46,0,0,0,2.7,2.69C219.23,348.57,219.48,348.82,219.29,349.24Z" transform="translate(-189.43 -327.42)"/><path class="cls-2" d="M207.41,337.09a10.48,10.48,0,0,1-4.31-5.69c-.33-1,.26-1.77.63-2.59.15-.34.47-.19.73-.1a3.27,3.27,0,0,1,2.39,2.1A11.26,11.26,0,0,1,207.41,337.09Z" transform="translate(-189.43 -327.42)"/><path class="cls-2" d="M219.19,337.08a10.06,10.06,0,0,1,1.1-7.32c.4-.71,1.31-.84,2.05-1.12.35-.13.51.1.64.37a3.45,3.45,0,0,1,.3,3.07A11.18,11.18,0,0,1,219.19,337.08Z" transform="translate(-189.43 -327.42)"/><path class="cls-2" d="M207.4,365.44a10.27,10.27,0,0,1-1,7.18c-.47.89-1.51,1-2.33,1.31-.24.11-.33-.17-.4-.34a3.47,3.47,0,0,1-.34-3.17A11.18,11.18,0,0,1,207.4,365.44Z" transform="translate(-189.43 -327.42)"/><path class="cls-2" d="M227.49,345.39a9.93,9.93,0,0,1,6.09-4.41c.73-.18,1.44.39,2.14.67.25.1.32.31.21.59-.4,1-.75,2.05-2,2.51A11.75,11.75,0,0,1,227.49,345.39Z" transform="translate(-189.43 -327.42)"/><path class="cls-2" d="M199.13,345.39a10.81,10.81,0,0,1-6.15-.54c-1.25-.48-2.63-2.24-2.33-3s2.51-1,3.75-.47A10.68,10.68,0,0,1,199.13,345.39Z" transform="translate(-189.43 -327.42)"/><path class="cls-2" d="M199.11,357.13a10.35,10.35,0,0,1-5.9,4.37c-.86.25-1.6-.36-2.37-.66a.34.34,0,0,1-.19-.49c.3-.77.41-1.71,1.19-2.14A10.41,10.41,0,0,1,199.11,357.13Z" transform="translate(-189.43 -327.42)"/><path class="cls-2" d="M219.19,365.44a10.22,10.22,0,0,1,4.33,5.82c.26.9-.3,1.69-.67,2.47-.11.23-.29.23-.49.15-1-.39-2-.64-2.47-1.83A11,11,0,0,1,219.19,365.44Z" transform="translate(-189.43 -327.42)"/><path class="cls-2" d="M227.49,357.13a10.27,10.27,0,0,1,7.34,1.13c.75.44.83,1.42,1.15,2.18.09.21-.11.33-.31.43a3.42,3.42,0,0,1-3.17.37A11,11,0,0,1,227.49,357.13Z" transform="translate(-189.43 -327.42)"/><path class="cls-3" d="M213.25,327.42a2.68,2.68,0,1,1,.08,5.36,2.68,2.68,0,1,1-.08-5.36Z" transform="translate(-189.43 -327.42)"/><path class="cls-3" d="M234.46,353.92a2.58,2.58,0,0,1-2.68-2.61,2.69,2.69,0,1,1,5.38-.11A2.63,2.63,0,0,1,234.46,353.92Z" transform="translate(-189.43 -327.42)"/><path class="cls-3" d="M201,366.26a2.68,2.68,0,1,1-2.58-2.74A2.67,2.67,0,0,1,201,366.26Z" transform="translate(-189.43 -327.42)"/><path class="cls-4" d="M225.6,366.2a2.58,2.58,0,0,1,2.61-2.67,2.69,2.69,0,1,1,0,5.37A2.6,2.6,0,0,1,225.6,366.2Z" transform="translate(-189.43 -327.42)"/><path class="cls-3" d="M216,372.37a2.7,2.7,0,1,1-2.79-2.66A2.68,2.68,0,0,1,216,372.37Z" transform="translate(-189.43 -327.42)"/><path class="cls-3" d="M201,336.28a2.68,2.68,0,1,1-5.36,0,2.68,2.68,0,0,1,5.36,0Z" transform="translate(-189.43 -327.42)"/><path class="cls-3" d="M192.11,353.92a2.64,2.64,0,0,1-2.68-2.74,2.7,2.7,0,0,1,2.7-2.63,2.66,2.66,0,0,1,2.67,2.77A2.58,2.58,0,0,1,192.11,353.92Z" transform="translate(-189.43 -327.42)"/><path class="cls-3" d="M225.6,336.27a2.56,2.56,0,0,1,2.64-2.64,2.68,2.68,0,1,1-2.64,2.64Z" transform="translate(-189.43 -327.42)"/><path class="cls-2" d="M224.28,353.17c.34-.1.48.07.49.42,0,1,1.18,2,.58,2.88-.44.61-1.58.8-2.34,1.31-.44.3-.56-.06-.72-.3-.64-1-1.71-2.08-1.32-3s2-1,3.16-1.27Z" transform="translate(-189.43 -327.42)"/><path class="cls-2" d="M224.15,349.32l-.36-.06c-3.21-.57-3.59-1.67-1.53-4.25.41-.51.77-.43,1-.07.59.79,2.35.27,2.12,1.88-.09.65-.42,1.28-.58,1.93C224.72,349.21,224.56,349.51,224.15,349.32Z" transform="translate(-189.43 -327.42)"/><path class="cls-5" d="M215.24,340.34c-.14-.44.17-.58.5-.6,1,0,1.93-1.12,2.79-.48.67.49.91,1.55,1.34,2.35.16.29,0,.43-.23.57a6.7,6.7,0,0,1-.78.53c-2.82,1.42-2.47,1.73-3.48-1.53A7,7,0,0,1,215.24,340.34Z" transform="translate(-189.43 -327.42)"/><path class="cls-5" d="M202.29,353.18a10.55,10.55,0,0,1,3.11.92.49.49,0,0,1,.28.76c-.11.25-.21.52-.32.77-1.1,2.45-2.38,2.79-4.16.81-.62-.67.53-1.82.61-2.82C201.82,353.36,201.88,353,202.29,353.18Z" transform="translate(-189.43 -327.42)"/><path class="cls-2" d="M202.44,349.32a.48.48,0,0,1-.63-.37c-.25-.84-.88-1.74-.72-2.48.22-1.09,1.7-1,2.45-1.71.35-.32.58,0,.76.25a11.49,11.49,0,0,1,1.39,2.64c.13.37.09.58-.29.76A11.93,11.93,0,0,1,202.44,349.32Z" transform="translate(-189.43 -327.42)"/><path class="cls-2" d="M211.31,340.71c-.23.93-.26,2.55-1.2,2.89s-2.16-.73-3.16-1.4c-.37-.25-.34-.51-.08-.78.68-.73.58-2.22,1.64-2.35.78-.09,1.71.54,2.6.74C211.51,339.91,211.34,340.26,211.31,340.71Z" transform="translate(-189.43 -327.42)"/><path class="cls-2" d="M215.24,362.15l0-.16c.21-1.13.27-2.69,1.21-3.08s2.07.72,3.05,1.31c.56.33.46.81.09,1-.87.52-.15,2.46-1.9,2.11-.66-.13-1.28-.44-1.93-.58C215.37,362.7,215.1,362.6,215.24,362.15Z" transform="translate(-189.43 -327.42)"/><path class="cls-2" d="M211.34,362.44c-.65.73-2,.48-2.9,1.11a15.39,15.39,0,0,1-1.77-2.75c0-.42,2.39-1.94,3.21-2C210.43,358.78,211.29,360.71,211.34,362.44Z" transform="translate(-189.43 -327.42)"/><path class="cls-6" d="M233,346.47a9.9,9.9,0,0,1-6.41,2.95c-.57.05-.86,0-.62-.69a6.45,6.45,0,0,0,.32-1c.19-1,.68-1.32,1.75-1.08A14.78,14.78,0,0,0,233,346.47Z" transform="translate(-189.43 -327.42)"/><path class="cls-7" d="M193.5,346.42a15.62,15.62,0,0,0,5.82.11c.6-.13.63.34.76.68.25.7.85,1.56.43,2.09s-1.34,0-2-.11A9.16,9.16,0,0,1,193.5,346.42Z" transform="translate(-189.43 -327.42)"/><path class="cls-8" d="M195.69,361.87a13.92,13.92,0,0,0,4.38-4.12c.38-.59.8-.11,1.13,0,.63.27,1.61.44,1.67,1.11s-.86.94-1.41,1.3A9.92,9.92,0,0,1,195.69,361.87Z" transform="translate(-189.43 -327.42)"/><path class="cls-8" d="M230.79,340.69a14.15,14.15,0,0,0-4.27,4.06c-.23.37-.52.25-.83.12a10.11,10.11,0,0,1-2.24-1.23A10.07,10.07,0,0,1,230.79,340.69Z" transform="translate(-189.43 -327.42)"/><path class="cls-5" d="M221,361.46a10.74,10.74,0,0,1,3,7.63,15.85,15.85,0,0,0-2.95-3.7c-.49-.44-1.47-.67-1.42-1.31A4.5,4.5,0,0,1,221,361.46Z" transform="translate(-189.43 -327.42)"/><path class="cls-9" d="M231,361.85a10,10,0,0,1-7-2.58c-.13-.14-.41-.33-.27-.47a6.7,6.7,0,0,1,2.29-1.24c.59-.24.66.32.86.59a11.74,11.74,0,0,0,1.94,2.1C229.42,360.82,230.19,361.31,231,361.85Z" transform="translate(-189.43 -327.42)"/><path class="cls-8" d="M223.9,333.67a10.25,10.25,0,0,1-2.41,6.82c-.4.48-.72.6-1,0-.07-.15-.15-.28-.23-.42-.85-1.58-.85-1.58.57-2.72A14.74,14.74,0,0,0,223.9,333.67Z" transform="translate(-189.43 -327.42)"/><path class="cls-5" d="M200.71,353.1c-.08.36-.12.62-.19.88-.48,2-.49,2-2.43,1.82a15.86,15.86,0,0,0-4.75.39A10,10,0,0,1,200.71,353.1Z" transform="translate(-189.43 -327.42)"/><path class="cls-8" d="M202.71,368.78a10,10,0,0,1,2.89-7.28,1.66,1.66,0,0,1,.68.84c.95,1.7.95,1.7-.54,2.91A15.38,15.38,0,0,0,202.71,368.78Z" transform="translate(-189.43 -327.42)"/><path class="cls-5" d="M203.08,343.69c-.33.21-.59.39-.86.54-1.68.95-1.69.95-2.93-.52a13,13,0,0,0-3.49-2.89C197.58,340.23,201.08,341.58,203.08,343.69Z" transform="translate(-189.43 -327.42)"/><path class="cls-8" d="M202.7,333.71a14.06,14.06,0,0,0,3.93,4.23c.35.24.48.48.29.89a7.15,7.15,0,0,1-1.28,2.22A10,10,0,0,1,202.7,333.71Z" transform="translate(-189.43 -327.42)"/><path class="cls-8" d="M233.53,356.36a12.51,12.51,0,0,0-6.13-.38c-.82.18-.82-.48-1-.91-.23-.61-.75-1.39-.34-1.86s1.2,0,1.82.08A10.41,10.41,0,0,1,233.53,356.36Z" transform="translate(-189.43 -327.42)"/><path class="cls-10" d="M218.18,371.07a9.85,9.85,0,0,1-3.06-6.64c0-.19-.07-.5.16-.51a6.29,6.29,0,0,1,2.39.67c.63.25.34.74.27,1.12A14,14,0,0,0,218.18,371.07Z" transform="translate(-189.43 -327.42)"/><path class="cls-8" d="M218.37,331.1a13.14,13.14,0,0,0-.35,6.18c.15.71-.52.71-.92.86-.61.24-1.4.76-1.87.36s0-1.21.09-1.83A10.18,10.18,0,0,1,218.37,331.1Z" transform="translate(-189.43 -327.42)"/><path class="cls-9" d="M208.51,331.58a9.57,9.57,0,0,1,3,6.59c0,.19,0,.48-.24.45a6.43,6.43,0,0,1-2.38-.75c-.61-.32-.22-.88-.15-1.28A17.19,17.19,0,0,0,208.51,331.58Z" transform="translate(-189.43 -327.42)"/><path class="cls-9" d="M208.39,371.11a13.61,13.61,0,0,0,.18-5.92c-.08-.34.07-.51.38-.62.78-.26,1.72-1,2.33-.55s.06,1.47-.11,2.23A8.92,8.92,0,0,1,208.39,371.11Z" transform="translate(-189.43 -327.42)"/><path class="cls-9" d="M217,357.67a11.47,11.47,0,0,1,2.63-2.71,17.85,17.85,0,0,0,1.92,3.46c.31.39-.07.57-.28.78s-.42.63-.87.29A13.21,13.21,0,0,0,217,357.67Z" transform="translate(-189.43 -327.42)"/><path class="cls-11" d="M213.32,344.26h-.6c-1,0-1.48-.23-.88-1.35a6.91,6.91,0,0,0,.59-2.17c.1-.59.31-.78.92-.79s.7.31.8.78a10.27,10.27,0,0,0,.64,2.28c.47,1,.22,1.26-.75,1.23h-.72Z" transform="translate(-189.43 -327.42)"/><path class="cls-12" d="M215.17,358.47a12.7,12.7,0,0,0-1,3.43c-.06.52-.33.65-.8.62s-.79,0-.85-.56a9.13,9.13,0,0,0-.86-3c-.22-.47-.08-.61.41-.66A8.85,8.85,0,0,1,215.17,358.47Z" transform="translate(-189.43 -327.42)"/><path class="cls-5" d="M217.07,344.82a11.81,11.81,0,0,0,3.25-1.74c.47-.4.67-.08,1,.19s.52.53.18,1a8,8,0,0,0-1.25,2.16c-.41,1.29-.93.92-1.59.28A7.07,7.07,0,0,1,217.07,344.82Z" transform="translate(-189.43 -327.42)"/><path class="cls-7" d="M206.28,351.29c0,1.85,0,1.84-1.66,1.28a10.67,10.67,0,0,0-1.85-.47c-.6-.08-.76-.33-.76-.93s.29-.67.78-.76a16.35,16.35,0,0,0,2.18-.6c1.27-.44,1.26-.46,1.31.88Z" transform="translate(-189.43 -327.42)"/><path class="cls-8" d="M207,355.1a10.71,10.71,0,0,1,2.41,2.34c.09.3-.14.35-.3.41a11.53,11.53,0,0,0-2.91,1.62c-.37.29-.6.1-.79-.16s-.73-.38-.41-.84a12.89,12.89,0,0,0,1.7-3.14C206.77,355.17,206.84,355,207,355.1Z" transform="translate(-189.43 -327.42)"/><path class="cls-8" d="M209.58,344.84c-.3.39-.49.69-.73,1-.53.6-1.09,1.49-1.78,1.5s-.64-1.19-1.1-1.75c-.27-.34-.44-.77-.72-1.1s-.35-.74.07-1.19.74-.32,1.17,0A12.15,12.15,0,0,0,209.58,344.84Z" transform="translate(-189.43 -327.42)"/><path class="cls-13" d="M220.47,353.17a15.29,15.29,0,0,1-.12-3.13c0-.59.21-.68.72-.45a8.84,8.84,0,0,0,2.74.82c.54.07.77.21.75.79s-.1.81-.68.89A12.23,12.23,0,0,0,220.47,353.17Z" transform="translate(-189.43 -327.42)"/></svg>